<svg xmlns="http://www.w3.org/2000/svg" viewBox="0 0 800 600" width="800" height="600" role="img" aria-label="Canvas tote bag merchandise">
  <defs>
    <radialGradient id="bg" cx="50%" cy="38%" r="72%">
      <stop offset="0%" stop-color="#fff7ec"/>
      <stop offset="100%" stop-color="#f3e2d0"/>
    </radialGradient>
    <linearGradient id="sheen" x1="0" y1="0" x2="1" y2="0">
      <stop offset="0%" stop-color="#ffffff" stop-opacity="0.38"/>
      <stop offset="45%" stop-color="#ffffff" stop-opacity="0"/>
    </linearGradient>
  </defs>
  <rect width="800" height="600" fill="url(#bg)"/>
  <ellipse cx="400" cy="508" rx="212" ry="26" fill="#3b2416" opacity="0.12"/>
  <path d="M300 232c0-56 45-100 100-100s100 44 100 100" fill="none" stroke="#5a3b25" stroke-width="16" stroke-linecap="round"/>
     <path d="M222 228h356l-26 288a28 28 0 0 1-28 25H276a28 28 0 0 1-28-25z" fill="#f3e2d0" stroke="#3b2416" stroke-width="7" stroke-linejoin="round"/>
     <path d="M222 228h356l-5 54H227z" fill="#fff7ec" opacity="0.75"/>
     <g stroke="#5a3b25" stroke-width="2.4" opacity="0.4">
       <line x1="236" y1="238" x2="236" y2="528"/>
       <line x1="268" y1="238" x2="268" y2="528"/>
       <line x1="300" y1="238" x2="300" y2="528"/>
       <line x1="332" y1="238" x2="332" y2="528"/>
       <line x1="364" y1="238" x2="364" y2="528"/>
       <line x1="396" y1="238" x2="396" y2="528"/>
       <line x1="428" y1="238" x2="428" y2="528"/>
       <line x1="460" y1="238" x2="460" y2="528"/>
       <line x1="492" y1="238" x2="492" y2="528"/>
       <line x1="524" y1="238" x2="524" y2="528"/>
       <line x1="556" y1="238" x2="556" y2="528"/>
     </g>
     <g transform="translate(400 372) scale(1.25)" text-anchor="middle" fill="#3b2416" font-family="Georgia, 'Times New Roman', serif">
    <text y="0" font-size="26" font-weight="700" letter-spacing="1.5">Bakerz Bite</text>
    <line x1="-54" y1="11" x2="54" y2="11" stroke="#3b2416" stroke-width="1.6" opacity="0.65"/>
    <text y="30" font-size="11.5" letter-spacing="4.4" font-family="Segoe UI, system-ui, sans-serif">BAKERY &amp; CAFÉ</text>
  </g>
     <text x="400" y="438" text-anchor="middle" font-size="13" letter-spacing="3" fill="#c07a33" font-family="Segoe UI, system-ui, sans-serif">12 OZ COTTON CANVAS</text>
</svg>
